<svg xmlns="http://www.w3.org/2000/svg" viewBox="0 0 301.7 64.42"><defs><style>.cls-1{fill:#469d67;}</style></defs><title>nsfo-logo</title><g id="Layer_2" data-name="Layer 2"><g id="Layer_1-2" data-name="Layer 1"><path class="cls-1" d="M75.25,1.61A1.68,1.68,0,0,1,77,0h2.23l35.7,34.36H115V2.6a1.7,1.7,0,0,1,1.7-1.7h10.74a1.75,1.75,0,0,1,1.7,1.7V62.81a1.67,1.67,0,0,1-1.7,1.61H126a2.6,2.6,0,0,1-1.16-.44L89.47,28.45h-.09V61.83a1.7,1.7,0,0,1-1.7,1.7H77a1.76,1.76,0,0,1-1.7-1.7Z"/><path class="cls-1" d="M139.67,55l4.2-7.43a2.3,2.3,0,0,1,3-.53c.36.17,6.8,4.92,12.71,4.92,3.58,0,6.17-2.24,6.17-5.37,0-3.76-3.13-6.62-9.21-9-7.7-3-17.36-9-17.36-19.77C139.22,9,146.11,0,159.89,0c9.3,0,16.46,4.74,19.15,6.71,1.07.63.89,2.24.53,2.86L175,16.46c-.63,1-2.24,1.79-3,1.17-.81-.45-7.34-5.37-12.8-5.37-3.22,0-5.63,2.15-5.63,4.56,0,3.31,2.68,5.82,9.75,8.68s18.07,8.23,18.07,20.4c0,9.22-8,18.52-21.11,18.52-11.64,0-18.08-4.83-20.14-6.89C139.22,56.64,139,56.28,139.67,55Z"/><path class="cls-1" d="M191,2.6a1.7,1.7,0,0,1,1.7-1.7h37.05a1.7,1.7,0,0,1,1.7,1.7v9.75a1.7,1.7,0,0,1-1.7,1.7H205V26.93h20.4a1.76,1.76,0,0,1,1.7,1.7v9.76a1.76,1.76,0,0,1-1.7,1.7H205V61.83a1.76,1.76,0,0,1-1.7,1.7H192.72a1.7,1.7,0,0,1-1.7-1.7Z"/><path class="cls-1" d="M269.49,0a32.21,32.21,0,1,1,0,64.42A31.92,31.92,0,0,1,237.37,32.3,32.08,32.08,0,0,1,269.49,0Zm0,50.11a17.9,17.9,0,1,0-17.8-17.81A17.94,17.94,0,0,0,269.49,50.11Z"/><path class="cls-1" d="M25,23.06l0,.14a.8.8,0,0,1-1.12.48.79.79,0,0,1-.43-.87c0-.16.07-.35.13-.57a1.89,1.89,0,0,0-.55-.1A2.75,2.75,0,0,0,20.27,25c0,1.45.63,2.19,1.93,2.2A5.3,5.3,0,0,0,25,26.47c.79-.48,1.3-1,1.3-1.61A2.46,2.46,0,0,0,25,23.06Z"/><path class="cls-1" d="M32.21,0A31.87,31.87,0,0,0,9.34,9.56a18.53,18.53,0,0,1,9.73,6A14.78,14.78,0,0,1,36.82,13c4,2.23,5.56,5.49,4.9,8.65-.53,2.55-.34,3.3,1.79,6.7.79,1.27.7,2.12-.52,2.89a3.4,3.4,0,0,1-1.83.68,1.49,1.49,0,0,1-1.23-.62,2.6,2.6,0,0,0-1.77-1.06,1,1,0,0,0-1,.81,1.28,1.28,0,0,0,.52,1.12,2.34,2.34,0,0,0,1.78.5c1.21,0,1.83.87,1.83,2.9,0,1.33-.69,1.81-2.47,1.81a7.4,7.4,0,0,1-3.6-.72c-.06,0-.1,0-.09.09.06.87,1.63,1.74,4,1.74a10.11,10.11,0,0,0,4.13-.77c.34-.15.57,0,.57.35,0,1.09-1.75,3.06-4.26,3.6a13,13,0,0,1-2.67.35,11.93,11.93,0,0,1-4.25-.85c-.47-.16-1.38,1.05-2.09,2.63-.79,1.75-.82,3,0,3.14.41.08.9-.16,1.49-.77a1.45,1.45,0,0,1,.84-.48,1.74,1.74,0,0,1,1.91.82,1.7,1.7,0,0,1,1.34-1.58,1.73,1.73,0,0,1,1.9.87,1.72,1.72,0,0,1,1.39-1.56,1.74,1.74,0,0,1,1.88.93,1.7,1.7,0,0,1,1.45-1.51,1.72,1.72,0,0,1,1.84,1,1.73,1.73,0,0,1,3.33-.3A1.72,1.72,0,0,1,49.61,43h0a1.72,1.72,0,0,1,1.68,1.34,1.72,1.72,0,0,1,1.86-1.11h0a1.76,1.76,0,0,1,1.49,1.61,1.72,1.72,0,0,1,2.07-.7,1.79,1.79,0,0,1,1,2.23,29.3,29.3,0,0,1-46.14,6.34h0a1.56,1.56,0,0,1-.51-1.25,1.83,1.83,0,0,1,.51-1.26,1.93,1.93,0,0,1,.28-.22l0,0a1.77,1.77,0,0,1-.26-3.38,1.77,1.77,0,0,1,.12-3.35,1.78,1.78,0,0,1,.35-3.33,1.78,1.78,0,0,1,.52-3.3,1.78,1.78,0,0,1,.66-3.27,1.77,1.77,0,0,1,.78-3.23,1.78,1.78,0,0,1,.21-3,1.86,1.86,0,0,1,.33-2.43A26.28,26.28,0,0,1,1.52,22.42,32.21,32.21,0,1,0,32.21,0ZM44.3,36.38c-.09.42-1.71.54-2-.09a7,7,0,0,1,0-2.74,1.76,1.76,0,0,1,.83-1.14,4.38,4.38,0,0,1,.92-.38c.12,0,.21,0,.24.17a8.09,8.09,0,0,1,.13,1.74A11.72,11.72,0,0,1,44.3,36.38ZM43.23,21.29A7.91,7.91,0,0,0,43.16,18c1.64-1.95,3.41-1.41,4.42-2.93-.85-1.34-4.11-.11-5.15,1.35a8.31,8.31,0,0,0-3.67-3.81c3.26-2,8-2.44,12.88-.59C52.42,15.48,50.64,18.59,43.23,21.29Z"/><path class="cls-1" d="M3.2,16.73a20.23,20.23,0,0,1,6.47-2c.78-.07,1.1.1,1.38.75.85,1.95,2.76,4.46,4.14,4.95.19.07.2.3,0,.43a3.67,3.67,0,0,1-2.24.71,5.62,5.62,0,0,1-3.85-1.38,18.66,18.66,0,0,0-2.35-2.05,5,5,0,0,0-2.95-.63c-.24,0-.61.12-.81.12a.39.39,0,0,1-.34-.25A.4.4,0,0,1,2.75,17,2.16,2.16,0,0,1,3.2,16.73Z"/></g></g></svg>